<?xml version="1.0" encoding="utf-8"?>
<!-- Generator: Adobe Illustrator 23.0.1, SVG Export Plug-In . SVG Version: 6.00 Build 0)  -->
<svg version="1.1" xmlns="http://www.w3.org/2000/svg" xmlns:xlink="http://www.w3.org/1999/xlink" x="0px" y="0px"
	 viewBox="0 0 101.9 99.8" style="enable-background:new 0 0 101.9 99.8;" xml:space="preserve">
<style type="text/css">
	.st0{fill:#FFCB05;}
</style>
<g id="Layer_1">
	<g>
		<g>
			<g>
				<path d="M0,65.2c0-1,0.4-1.8,1.1-2.5s1.5-1.1,2.5-1.1c1,0,1.9,0.4,2.6,1.1c0.7,0.7,1.1,1.5,1.1,2.5s-0.4,1.9-1.1,2.6
					c-0.7,0.7-1.5,1.1-2.5,1.1c-1,0-1.8-0.4-2.6-1.1C0.4,67.1,0,66.2,0,65.2z M6.4,75.2v23.9H0.8V75.2H6.4z"/>
				<path d="M31,57.6h5.5v41.5H31v-2.5c-2.2,2.1-4.6,3.2-7.4,3.2c-3.3,0-6-1.2-8.2-3.6c-2.1-2.4-3.2-5.5-3.2-9.1
					c0-3.6,1.1-6.5,3.2-8.9c2.1-2.4,4.8-3.6,8-3.6c2.8,0,5.3,1.1,7.5,3.4V57.6z M17.9,87.1c0,2.3,0.6,4.2,1.8,5.6
					c1.3,1.5,2.8,2.2,4.8,2.2c2,0,3.7-0.7,5-2.1c1.3-1.5,1.9-3.3,1.9-5.5c0-2.2-0.6-4.1-1.9-5.6c-1.3-1.4-2.9-2.1-4.9-2.1
					c-1.9,0-3.5,0.7-4.8,2.2C18.5,83.1,17.9,84.9,17.9,87.1z"/>
				<path d="M45.4,86.8c0-0.9,0.3-1.7,1-2.4c0.7-0.7,1.5-1,2.4-1c0.9,0,1.7,0.3,2.4,1c0.7,0.7,1,1.5,1,2.4c0,0.9-0.3,1.8-1,2.4
					c-0.7,0.7-1.5,1-2.4,1c-1,0-1.8-0.3-2.4-1C45.7,88.6,45.4,87.8,45.4,86.8z"/>
				<path d="M64.6,75.2v13.7c0,4,1.6,5.9,4.7,5.9s4.7-2,4.7-5.9V75.2h5.5V89c0,1.9-0.2,3.6-0.7,5c-0.5,1.2-1.3,2.4-2.4,3.4
					c-1.9,1.6-4.2,2.4-7.1,2.4c-2.9,0-5.2-0.8-7.1-2.4c-1.1-1-2-2.1-2.4-3.4c-0.5-1.1-0.7-2.8-0.7-5V75.2H64.6z"/>
				<path d="M100.3,79.3l-4.6,2.4c-0.7-1.5-1.6-2.2-2.7-2.2c-0.5,0-0.9,0.2-1.3,0.5c-0.4,0.3-0.5,0.8-0.5,1.3c0,0.9,1.1,1.8,3.2,2.7
					c2.9,1.3,4.9,2.4,5.9,3.5c1,1.1,1.5,2.5,1.5,4.3c0,2.3-0.9,4.2-2.6,5.8c-1.7,1.5-3.7,2.2-6,2.2c-4,0-6.9-2-8.5-5.9l4.7-2.2
					c0.7,1.1,1.2,1.9,1.5,2.2c0.7,0.6,1.5,0.9,2.4,0.9c1.9,0,2.8-0.9,2.8-2.6c0-1-0.7-1.9-2.2-2.8c-0.6-0.3-1.1-0.5-1.7-0.8
					c-0.6-0.3-1.1-0.5-1.7-0.8c-1.6-0.8-2.7-1.6-3.4-2.4c-0.8-1-1.3-2.3-1.3-3.9c0-2.1,0.7-3.8,2.1-5.2c1.5-1.4,3.2-2,5.3-2
					C96.6,74.5,98.9,76.1,100.3,79.3z"/>
			</g>
		</g>
		<path class="st0" d="M67.3,0L51.2,0C38.9,0,28.8,10,28.8,22.4v0c0,6.5,2.8,12.3,7.2,16.4l11.6,11.6c0.5,0.5,1.4,0.5,2,0l4.8-4.8
			c0.5-0.5,1.3-0.9,2.1-0.9h11c12.4,0,22.4-10,22.4-22.4v0C89.7,10,79.7,0,67.3,0z M67,39.3H55.2l-0.6,0c-1.2,0-2.3,0.6-3.1,1.5v0
			c-0.1,0.1-0.1,0.2-0.2,0.2l-2.6,2.6l-8.7-8.7l-0.1-0.1c-3.8-3.5-5.8-8.4-5.4-13.7c0.6-8.9,8.3-15.7,17.2-15.7l15.8,0
			c9.8,0,17.6,8.3,16.9,18.2C83.6,32.6,75.9,39.3,67,39.3z"/>
	</g>
</g>
<g id="Layer_2">
</g>
</svg>
